<?xml version="1.0" encoding="utf-8"?>
<!-- Generator: Adobe Illustrator 16.0.0, SVG Export Plug-In . SVG Version: 6.00 Build 0)  -->
<!DOCTYPE svg PUBLIC "-//W3C//DTD SVG 1.1//EN" "http://www.w3.org/Graphics/SVG/1.1/DTD/svg11.dtd">
<svg version="1.1" id="Layer_1" xmlns="http://www.w3.org/2000/svg" xmlns:xlink="http://www.w3.org/1999/xlink" x="0px" y="0px"
	 width="331.285px" height="79.906px" viewBox="0 0 331.285 79.906" enable-background="new 0 0 331.285 79.906"
	 xml:space="preserve">
<path fill="#FBCB43" d="M0,55.309l6.645-1.055V8.129L0.844,7.531V3.699h9.246c1.125,0,2.578-0.082,4.359-0.246
	c1.781-0.164,3.844-0.246,6.188-0.246c2.695,0,5.173,0.223,7.436,0.668c2.262,0.445,4.213,1.225,5.854,2.338
	c1.64,1.113,2.918,2.607,3.832,4.482c0.914,1.875,1.371,4.231,1.371,7.066c0,1.828-0.287,3.551-0.861,5.168
	c-0.575,1.617-1.377,3.088-2.408,4.412c-1.032,1.324-2.268,2.491-3.709,3.498c-1.441,1.008-3.041,1.816-4.799,2.426
	c0.117,0.047,0.234,0.094,0.352,0.141c0.117,0.047,0.234,0.094,0.352,0.141c1.102,0.563,2.167,1.436,3.199,2.619
	c1.031,1.184,2.021,2.514,2.971,3.99s1.857,3.012,2.725,4.605c0.867,1.594,1.693,3.064,2.479,4.412
	c0.785,1.348,1.523,2.491,2.215,3.428c0.691,0.938,1.341,1.489,1.951,1.652l3.762,1.055v2.988h-10.16
	c-0.445,0-0.932-0.352-1.459-1.055s-1.096-1.623-1.705-2.76c-0.61-1.137-1.26-2.438-1.951-3.902
	c-0.691-1.464-1.418-2.947-2.18-4.447c-0.762-1.5-1.559-2.965-2.391-4.395c-0.832-1.429-1.7-2.689-2.602-3.779
	c-0.902-1.09-1.834-1.945-2.795-2.566c-0.961-0.621-1.957-0.884-2.988-0.791c-0.821,0.047-1.693,0.07-2.619,0.07
	c-0.926,0-1.928,0-3.006,0v19.617l7.277,1.02v2.988H0V55.309z M13.5,30.699c0.281,0.047,0.697,0.083,1.248,0.105
	c0.55,0.023,1.13,0.041,1.74,0.053c0.609,0.012,1.207,0.023,1.793,0.035c0.585,0.012,1.066,0.018,1.441,0.018
	c1.875,0,3.568-0.234,5.08-0.703c1.512-0.469,2.795-1.201,3.85-2.197c1.055-0.996,1.869-2.273,2.443-3.832
	c0.574-1.559,0.861-3.428,0.861-5.607c0-1.805-0.199-3.439-0.598-4.904c-0.399-1.464-1.067-2.707-2.004-3.727
	c-0.938-1.02-2.192-1.793-3.762-2.32c-1.57-0.527-3.528-0.744-5.871-0.65c-1.148,0.047-2.25,0.088-3.305,0.123
	S14.391,7.273,13.5,7.531V30.699z"/>
<path fill="#FFFFFF" stroke="#000000" stroke-miterlimit="10" d="M50.379,38.75c0-3,0.475-5.766,1.424-8.297
	s2.273-4.723,3.973-6.574c1.699-1.851,3.744-3.31,6.135-4.377c2.391-1.066,5.027-1.635,7.91-1.705
	c2.062-0.047,3.925,0.252,5.59,0.896c1.664,0.645,3.082,1.6,4.254,2.865c1.172,1.266,2.092,2.813,2.76,4.641
	s1.049,3.902,1.143,6.223c0.047,1.477,0.018,2.754-0.088,3.832c-0.105,1.078-0.217,2.039-0.334,2.883H57.094
	c0,0.141,0,0.276,0,0.404c0,0.129,0.012,0.264,0.035,0.404c0.093,2.836,0.574,5.18,1.441,7.031c0.867,1.852,1.951,3.322,3.252,4.412
	s2.736,1.852,4.307,2.285c1.57,0.434,3.105,0.65,4.605,0.65c0.914,0,1.875-0.053,2.883-0.158c1.007-0.105,1.986-0.258,2.936-0.457
	c0.949-0.199,1.828-0.427,2.637-0.686c0.809-0.258,1.459-0.527,1.951-0.809l1.301,2.988c-0.68,0.61-1.564,1.16-2.654,1.652
	s-2.28,0.909-3.568,1.248c-1.289,0.339-2.637,0.598-4.043,0.773s-2.777,0.264-4.113,0.264c-2.836,0-5.35-0.487-7.541-1.459
	c-2.192-0.972-4.038-2.343-5.537-4.113c-1.5-1.77-2.643-3.908-3.428-6.416C50.771,44.645,50.379,41.844,50.379,38.75z
	 M76.395,34.988c0.07-1.195,0.088-2.396,0.053-3.604c-0.035-1.207-0.182-2.355-0.439-3.445c-0.258-1.09-0.65-2.086-1.178-2.988
	c-0.527-0.902-1.236-1.635-2.127-2.197c-0.61-0.398-1.301-0.697-2.074-0.896c-0.773-0.199-1.652-0.299-2.637-0.299
	c-1.313,0-2.584,0.246-3.814,0.738s-2.333,1.278-3.305,2.355c-0.973,1.078-1.788,2.467-2.443,4.166
	c-0.656,1.7-1.078,3.756-1.266,6.17H76.395z"/>
<path fill="#FFFFFF" stroke="#000000" stroke-miterlimit="10" d="M91.969,55.309l4.781-0.703V25.953l-4.992-2.742v-2.18l9.352-2.777
	l1.582,0.703v5.027c0.796-0.68,1.758-1.354,2.883-2.021s2.32-1.271,3.586-1.811c1.266-0.539,2.566-0.979,3.902-1.318
	c1.336-0.339,2.602-0.533,3.797-0.58c2.18-0.07,4.008,0.193,5.484,0.791s2.672,1.57,3.586,2.918c0.914,1.348,1.57,3.076,1.969,5.186
	c0.398,2.109,0.598,4.641,0.598,7.594v19.863l5.66,0.703v2.988h-17.719v-2.988l5.309-0.738V35.973c0-2.132-0.105-4.008-0.316-5.625
	s-0.627-2.953-1.248-4.008c-0.621-1.055-1.482-1.828-2.584-2.32c-1.102-0.492-2.543-0.703-4.324-0.633
	c-1.454,0.07-2.988,0.393-4.605,0.967c-1.617,0.575-3.317,1.471-5.098,2.689V54.57l5.238,0.738v2.988h-16.84V55.309z"/>
<path fill="#FFFFFF" stroke="#000000" stroke-miterlimit="10" d="M145.477,49.086c0-4.312,0.005-8.596,0.018-12.85
	c0.012-4.254,0.018-8.537,0.018-12.85h-5.379V20.75c1.031-0.258,1.893-0.462,2.584-0.615c0.691-0.152,1.266-0.328,1.723-0.527
	c0.457-0.199,0.838-0.451,1.143-0.756c0.304-0.304,0.585-0.75,0.844-1.336c0.164-0.398,0.369-0.984,0.615-1.758
	s0.48-1.564,0.703-2.373c0.223-0.809,0.416-1.57,0.58-2.285c0.164-0.715,0.269-1.225,0.316-1.529h3.48v9.387h11.813v4.43h-11.813
	v17.719c0,2.719,0.035,4.928,0.105,6.627c0.07,1.7,0.246,3.029,0.527,3.99c0.281,0.961,0.691,1.612,1.23,1.951
	c0.539,0.34,1.289,0.51,2.25,0.51c0.586,0,1.236-0.058,1.951-0.176c0.715-0.117,1.406-0.258,2.074-0.422
	c0.668-0.164,1.283-0.346,1.846-0.545c0.563-0.199,0.984-0.392,1.266-0.58l1.09,3.094c-0.539,0.586-1.254,1.102-2.145,1.547
	c-0.891,0.445-1.857,0.821-2.9,1.125s-2.086,0.533-3.129,0.686c-1.043,0.152-1.963,0.229-2.76,0.229
	c-2.555,0-4.535-0.786-5.941-2.355S145.477,52.649,145.477,49.086z"/>
<path fill="#0FBCB4" d="M170.227,55.309l5.941-1.02V7.742l-5.801-0.598V3.699h18.387v3.445l-5.73,0.633V32l20.004-24.223
	l-5.449-0.633c0-0.585-0.006-1.16-0.018-1.723s-0.018-1.137-0.018-1.723h17.543v3.445l-5.73,0.633l-16.488,18.984
	c0.586,0.656,1.266,1.553,2.039,2.689c0.773,1.137,1.605,2.403,2.496,3.797c0.891,1.395,1.822,2.877,2.795,4.447
	c0.973,1.57,1.939,3.129,2.9,4.676s1.887,3.023,2.777,4.43s1.711,2.643,2.461,3.709c0.75,1.067,1.412,1.916,1.986,2.549
	s1.002,0.949,1.283,0.949l5.625,1.301v2.988h-10.863c-0.305,0-0.721-0.316-1.248-0.949s-1.131-1.482-1.811-2.549
	c-0.68-1.066-1.424-2.297-2.232-3.691c-0.809-1.394-1.641-2.853-2.496-4.377c-0.855-1.523-1.723-3.059-2.602-4.605
	s-1.74-3.011-2.584-4.395c-0.844-1.383-1.652-2.631-2.426-3.744c-0.773-1.113-1.477-1.986-2.109-2.619l-5.836,6.75v16.207
	l6.434,0.984v2.988h-19.23V55.309z"/>
<path fill="#FFFFFF" stroke="#000000" stroke-miterlimit="10" d="M220.324,55.309l5.977-0.738V25.777l-4.852-2.566v-2.18
	l9.738-2.777l1.582,0.703V54.57l5.695,0.738v2.988h-18.141V55.309z M228.094,9.957c-0.563,0-1.113-0.1-1.652-0.299
	c-0.539-0.199-1.014-0.48-1.424-0.844c-0.41-0.363-0.738-0.814-0.984-1.354c-0.246-0.539-0.369-1.148-0.369-1.828
	c0-0.726,0.158-1.406,0.475-2.039s0.721-1.178,1.213-1.635s1.049-0.814,1.67-1.072c0.621-0.258,1.248-0.387,1.881-0.387
	c1.547,0,2.678,0.428,3.393,1.283c0.715,0.856,1.072,1.881,1.072,3.076c0,0.773-0.152,1.477-0.457,2.109s-0.703,1.166-1.195,1.6
	c-0.492,0.434-1.055,0.773-1.688,1.02S228.75,9.957,228.094,9.957z"/>
<path fill="#FFFFFF" stroke="#000000" stroke-miterlimit="10" d="M245.25,55.309l4.781-0.703V25.953l-4.992-2.742v-2.18l9.352-2.777
	l1.582,0.703v5.027c0.797-0.68,1.758-1.354,2.883-2.021s2.32-1.271,3.586-1.811c1.266-0.539,2.566-0.979,3.902-1.318
	c1.336-0.339,2.602-0.533,3.797-0.58c2.18-0.07,4.008,0.193,5.484,0.791s2.672,1.57,3.586,2.918c0.914,1.348,1.57,3.076,1.969,5.186
	s0.598,4.641,0.598,7.594v19.863l5.66,0.703v2.988h-17.719v-2.988l5.309-0.738V35.973c0-2.132-0.105-4.008-0.316-5.625
	s-0.627-2.953-1.248-4.008s-1.482-1.828-2.584-2.32s-2.543-0.703-4.324-0.633c-1.453,0.07-2.988,0.393-4.605,0.967
	c-1.617,0.575-3.316,1.471-5.098,2.689V54.57l5.238,0.738v2.988h-16.84V55.309z"/>
<path fill="#FFFFFF" stroke="#000000" stroke-miterlimit="10" d="M293.941,66.488c0-1.078,0.193-2.109,0.58-3.094
	s0.873-1.887,1.459-2.707c0.586-0.821,1.225-1.553,1.916-2.197s1.354-1.166,1.986-1.564c-1.055-0.375-1.852-0.809-2.391-1.301
	s-0.92-1.007-1.143-1.547c-0.223-0.539-0.346-1.09-0.369-1.652s-0.035-1.09-0.035-1.582c0-0.422,0.094-0.972,0.281-1.652
	c0.188-0.68,0.463-1.406,0.826-2.18s0.82-1.559,1.371-2.355c0.551-0.796,1.178-1.512,1.881-2.145
	c-1.758-1.055-3.146-2.466-4.166-4.236c-1.02-1.77-1.529-3.932-1.529-6.486c0-2.414,0.463-4.512,1.389-6.293
	c0.926-1.781,2.145-3.257,3.656-4.43c1.512-1.172,3.229-2.051,5.15-2.637c1.922-0.585,3.867-0.902,5.836-0.949
	c1.992-0.047,3.861,0.158,5.607,0.615s3.287,1.19,4.623,2.197c0.469-0.539,1.154-0.979,2.057-1.318
	c0.902-0.339,2.104-0.51,3.604-0.51h4.254v5.309h-6.891c0.492,0.891,0.873,1.898,1.143,3.023s0.404,2.355,0.404,3.691
	c0,2.32-0.428,4.377-1.283,6.17s-2.004,3.299-3.445,4.518c-1.441,1.219-3.105,2.145-4.992,2.777s-3.861,0.949-5.924,0.949
	c-2.766,0-5.238-0.434-7.418-1.301c-0.141,0.375-0.24,0.779-0.299,1.213c-0.059,0.434-0.094,0.856-0.105,1.266
	c-0.012,0.41-0.012,0.797,0,1.16c0.012,0.364,0.018,0.663,0.018,0.896c0,1.266,0.334,2.25,1.002,2.953s1.834,1.125,3.498,1.266
	c1.055,0.094,2.32,0.146,3.797,0.158c1.477,0.012,3.234,0.018,5.273,0.018c2.18,0,4.043,0.17,5.59,0.51
	c1.547,0.34,2.83,0.791,3.85,1.354s1.822,1.219,2.408,1.969c0.586,0.75,1.031,1.535,1.336,2.355s0.492,1.646,0.563,2.479
	c0.07,0.832,0.105,1.623,0.105,2.373c0,2.016-0.422,3.844-1.266,5.484c-0.844,1.64-2.057,3.046-3.639,4.219
	c-1.582,1.172-3.516,2.08-5.801,2.725c-2.285,0.645-4.881,0.967-7.787,0.967c-2.109,0-4.178-0.164-6.205-0.492
	c-2.027-0.329-3.838-0.896-5.432-1.705s-2.883-1.887-3.867-3.234C294.434,70.185,293.941,68.504,293.941,66.488z M300.48,64.238
	c0,1.594,0.305,2.947,0.914,4.061c0.609,1.113,1.43,2.016,2.461,2.707c1.031,0.691,2.227,1.195,3.586,1.512s2.801,0.475,4.324,0.475
	c1.898,0,3.604-0.158,5.115-0.475s2.795-0.791,3.85-1.424s1.863-1.436,2.426-2.408c0.563-0.973,0.844-2.115,0.844-3.428
	c0-1.125-0.129-2.127-0.387-3.006s-0.762-1.623-1.512-2.232c-0.75-0.61-1.799-1.072-3.146-1.389s-3.111-0.475-5.291-0.475
	l-4.43-0.07c-1.383,0-2.619-0.041-3.709-0.123c-1.09-0.082-2.068-0.193-2.936-0.334c-0.281,0.329-0.545,0.697-0.791,1.107
	c-0.246,0.41-0.469,0.879-0.668,1.406s-0.357,1.125-0.475,1.793S300.48,63.371,300.48,64.238z M310.816,41.141
	c1.453,0,2.684-0.199,3.691-0.598c1.008-0.398,1.822-1.002,2.443-1.811s1.072-1.816,1.354-3.023
	c0.281-1.207,0.422-2.619,0.422-4.236c0-3.492-0.75-6.082-2.25-7.77s-3.75-2.531-6.75-2.531c-1.172,0-2.268,0.153-3.287,0.457
	c-1.02,0.305-1.91,0.814-2.672,1.529c-0.762,0.715-1.359,1.665-1.793,2.848c-0.434,1.184-0.65,2.667-0.65,4.447
	c0,1.454,0.176,2.83,0.527,4.131s0.908,2.438,1.67,3.41c0.762,0.973,1.746,1.74,2.953,2.303S309.129,41.141,310.816,41.141z"/>
<path fill="#FFFFFF" stroke="#000000" stroke-width="0.25" stroke-miterlimit="10" d="M0.728,74.968l1.392-0.164v-6.359L0.9,67.835
	v-0.484l2.269-0.617l0.404,0.156v1.203c0.109-0.146,0.273-0.299,0.494-0.461c0.22-0.161,0.468-0.309,0.743-0.441
	s0.562-0.242,0.859-0.328s0.579-0.129,0.842-0.129c0.189,0,0.359,0.004,0.511,0.012s0.259,0.022,0.322,0.043v1.602
	c-0.092-0.031-0.186-0.063-0.284-0.098c-0.097-0.034-0.205-0.063-0.322-0.086c-0.117-0.023-0.25-0.043-0.399-0.059
	s-0.321-0.023-0.516-0.023c-0.464,0-0.854,0.054-1.169,0.16c-0.315,0.107-0.604,0.236-0.868,0.387v6.109l2.449,0.188v0.664H0.728
	V74.968z"/>
<path fill="#FFFFFF" stroke="#000000" stroke-width="0.25" stroke-miterlimit="10" d="M20.877,71.289
	c0-0.667,0.116-1.281,0.348-1.844s0.556-1.049,0.971-1.461c0.415-0.411,0.915-0.735,1.5-0.973c0.584-0.237,1.229-0.363,1.934-0.379
	c0.504-0.01,0.959,0.056,1.366,0.199c0.407,0.144,0.753,0.355,1.04,0.637c0.286,0.281,0.511,0.625,0.674,1.031
	c0.164,0.406,0.256,0.867,0.279,1.383c0.012,0.328,0.004,0.612-0.021,0.852c-0.025,0.24-0.053,0.453-0.082,0.641h-6.368
	c0,0.031,0,0.062,0,0.09c0,0.029,0.002,0.059,0.008,0.09c0.023,0.63,0.141,1.151,0.353,1.563c0.212,0.412,0.477,0.738,0.795,0.98
	s0.669,0.412,1.053,0.508c0.384,0.097,0.759,0.145,1.125,0.145c0.224,0,0.458-0.012,0.705-0.035
	c0.246-0.023,0.485-0.057,0.717-0.102c0.232-0.044,0.447-0.095,0.645-0.152c0.198-0.057,0.357-0.117,0.477-0.18l0.318,0.664
	c-0.166,0.136-0.382,0.258-0.649,0.367c-0.266,0.109-0.557,0.202-0.872,0.277s-0.645,0.133-0.988,0.172S25.526,75.82,25.2,75.82
	c-0.693,0-1.308-0.108-1.843-0.324c-0.536-0.216-0.987-0.521-1.354-0.914c-0.367-0.393-0.646-0.868-0.838-1.426
	C20.973,72.599,20.877,71.976,20.877,71.289z M27.236,70.453c0.017-0.266,0.021-0.532,0.013-0.801
	c-0.008-0.268-0.044-0.523-0.107-0.766s-0.159-0.463-0.288-0.664c-0.129-0.2-0.302-0.363-0.52-0.488
	c-0.149-0.088-0.318-0.155-0.507-0.199c-0.189-0.044-0.404-0.066-0.645-0.066c-0.321,0-0.632,0.055-0.933,0.164
	s-0.57,0.284-0.808,0.523c-0.238,0.24-0.437,0.548-0.598,0.926c-0.16,0.378-0.263,0.835-0.309,1.371H27.236z"/>
<path fill="#FFFFFF" stroke="#000000" stroke-width="0.25" stroke-miterlimit="10" d="M43.364,74.968l1.168-0.156v-6.367
	l-1.22-0.609v-0.484l2.286-0.617l0.387,0.156v1.117c0.195-0.151,0.43-0.301,0.705-0.449s0.567-0.282,0.876-0.402
	c0.31-0.12,0.627-0.217,0.954-0.293c0.327-0.075,0.636-0.118,0.928-0.129c0.533-0.016,0.979,0.043,1.34,0.176
	s0.653,0.349,0.876,0.648c0.224,0.3,0.384,0.684,0.481,1.152c0.097,0.469,0.146,1.031,0.146,1.688v4.414l1.384,0.156v0.664h-4.332
	v-0.664l1.298-0.164v-4.133c0-0.474-0.026-0.891-0.077-1.25c-0.052-0.359-0.153-0.656-0.305-0.891s-0.362-0.406-0.632-0.516
	c-0.269-0.109-0.622-0.156-1.057-0.141c-0.355,0.016-0.73,0.087-1.125,0.215c-0.396,0.128-0.811,0.327-1.246,0.598v6.117l1.28,0.164
	v0.664h-4.116V74.968z"/>
<path fill="#FFFFFF" stroke="#000000" stroke-width="0.25" stroke-miterlimit="10" d="M68.763,73.585
	c0-0.958,0.001-1.91,0.004-2.855s0.004-1.897,0.004-2.855h-1.315v-0.586c0.252-0.057,0.463-0.103,0.632-0.137
	c0.169-0.034,0.309-0.073,0.421-0.117c0.112-0.044,0.205-0.1,0.279-0.168c0.075-0.067,0.143-0.167,0.207-0.297
	c0.04-0.088,0.09-0.219,0.15-0.391c0.06-0.172,0.117-0.348,0.172-0.527c0.054-0.18,0.102-0.349,0.142-0.508
	c0.04-0.159,0.066-0.272,0.077-0.34h0.851v2.086h2.887v0.984h-2.887v3.938c0,0.604,0.008,1.095,0.026,1.473
	c0.017,0.378,0.06,0.673,0.129,0.887c0.068,0.214,0.169,0.358,0.301,0.434c0.131,0.076,0.315,0.113,0.55,0.113
	c0.143,0,0.302-0.013,0.477-0.039c0.175-0.026,0.344-0.057,0.507-0.094c0.164-0.036,0.314-0.077,0.451-0.121
	c0.138-0.044,0.241-0.087,0.31-0.129l0.266,0.688c-0.132,0.13-0.306,0.245-0.524,0.344c-0.218,0.099-0.454,0.183-0.709,0.25
	s-0.51,0.118-0.765,0.152c-0.255,0.034-0.479,0.051-0.674,0.051c-0.625,0-1.109-0.175-1.453-0.523S68.763,74.377,68.763,73.585z"/>
<path fill="#FFFFFF" stroke="#000000" stroke-width="0.25" stroke-miterlimit="10" d="M87.167,74.968l1.409-0.172v-10.57
	l-1.547-0.281v-0.68l2.854-0.328l0.344,0.18v7.016l-0.043,1.203l3.824-3.586L92.71,67.64v-0.828h4.056v0.828l-1.306,0.125
	l-2.922,2.672l3.635,4.367l1.168,0.164v0.664h-4.168v-0.664l1.195-0.18l-2.828-3.602l-1.366,1.234l0.052,1.516v0.875l1.237,0.156
	v0.664h-4.297V74.968z"/>
<path fill="#FFFFFF" stroke="#000000" stroke-width="0.25" stroke-miterlimit="10" d="M110.453,74.968l1.461-0.164v-6.398
	l-1.186-0.57v-0.484l2.381-0.617l0.387,0.156v7.914l1.392,0.164v0.664h-4.435V74.968z M112.353,64.89
	c-0.138,0-0.272-0.022-0.404-0.066c-0.132-0.044-0.248-0.106-0.348-0.188c-0.101-0.081-0.181-0.181-0.241-0.301
	c-0.06-0.12-0.09-0.255-0.09-0.406c0-0.161,0.039-0.313,0.116-0.453c0.077-0.141,0.176-0.262,0.296-0.363s0.256-0.181,0.408-0.238
	c0.152-0.057,0.305-0.086,0.46-0.086c0.378,0,0.654,0.095,0.829,0.285c0.175,0.19,0.262,0.418,0.262,0.684
	c0,0.172-0.038,0.328-0.112,0.469c-0.075,0.141-0.172,0.259-0.292,0.355c-0.121,0.097-0.258,0.172-0.413,0.227
	S112.513,64.89,112.353,64.89z"/>
<path fill="#FFFFFF" stroke="#000000" stroke-width="0.25" stroke-miterlimit="10" d="M128.866,74.968l1.168-0.156v-6.367
	l-1.22-0.609v-0.484l2.286-0.617l0.387,0.156v1.117c0.195-0.151,0.43-0.301,0.705-0.449s0.567-0.282,0.876-0.402
	c0.31-0.12,0.627-0.217,0.954-0.293c0.327-0.075,0.636-0.118,0.928-0.129c0.533-0.016,0.979,0.043,1.34,0.176
	s0.653,0.349,0.876,0.648c0.224,0.3,0.384,0.684,0.481,1.152c0.097,0.469,0.146,1.031,0.146,1.688v4.414l1.384,0.156v0.664h-4.332
	v-0.664l1.298-0.164v-4.133c0-0.474-0.026-0.891-0.077-1.25c-0.052-0.359-0.153-0.656-0.305-0.891s-0.362-0.406-0.632-0.516
	c-0.269-0.109-0.622-0.156-1.057-0.141c-0.355,0.016-0.73,0.087-1.125,0.215c-0.396,0.128-0.811,0.327-1.246,0.598v6.117l1.28,0.164
	v0.664h-4.116V74.968z"/>
<path fill="#FFFFFF" stroke="#000000" stroke-width="0.25" stroke-miterlimit="10" d="M153.089,77.453
	c0-0.24,0.047-0.469,0.142-0.688s0.213-0.419,0.356-0.602c0.144-0.183,0.299-0.345,0.469-0.488c0.169-0.143,0.33-0.259,0.485-0.348
	c-0.258-0.083-0.453-0.18-0.585-0.289s-0.225-0.224-0.279-0.344c-0.054-0.12-0.084-0.242-0.09-0.367s-0.009-0.242-0.009-0.352
	c0-0.094,0.023-0.216,0.069-0.367c0.045-0.151,0.112-0.313,0.201-0.484s0.201-0.346,0.336-0.523
	c0.134-0.177,0.287-0.336,0.459-0.477c-0.43-0.234-0.769-0.548-1.018-0.941c-0.25-0.393-0.374-0.874-0.374-1.441
	c0-0.536,0.113-1.002,0.339-1.398c0.227-0.396,0.524-0.724,0.895-0.984c0.369-0.26,0.789-0.456,1.259-0.586
	c0.47-0.13,0.945-0.2,1.427-0.211c0.486-0.01,0.943,0.035,1.37,0.137s0.804,0.265,1.13,0.488c0.115-0.12,0.282-0.217,0.503-0.293
	c0.221-0.075,0.515-0.113,0.881-0.113h1.04v1.18h-1.685c0.12,0.198,0.214,0.422,0.279,0.672c0.066,0.25,0.099,0.523,0.099,0.82
	c0,0.516-0.104,0.973-0.313,1.371s-0.489,0.733-0.842,1.004c-0.353,0.271-0.76,0.477-1.221,0.617s-0.943,0.211-1.448,0.211
	c-0.676,0-1.28-0.096-1.813-0.289c-0.035,0.083-0.06,0.173-0.073,0.27c-0.015,0.097-0.023,0.19-0.026,0.281
	c-0.003,0.091-0.003,0.177,0,0.258c0.003,0.081,0.005,0.147,0.005,0.199c0,0.281,0.081,0.5,0.245,0.656
	c0.163,0.156,0.448,0.25,0.854,0.281c0.258,0.021,0.567,0.033,0.929,0.035c0.36,0.003,0.79,0.004,1.289,0.004
	c0.532,0,0.988,0.038,1.366,0.113c0.378,0.076,0.691,0.176,0.94,0.301c0.25,0.125,0.445,0.271,0.589,0.438
	c0.144,0.167,0.252,0.341,0.327,0.523c0.074,0.182,0.12,0.366,0.137,0.551c0.018,0.185,0.026,0.36,0.026,0.527
	c0,0.448-0.104,0.854-0.31,1.219c-0.206,0.364-0.503,0.677-0.89,0.938c-0.387,0.26-0.859,0.462-1.418,0.605
	c-0.559,0.143-1.193,0.215-1.903,0.215c-0.516,0-1.021-0.037-1.517-0.109c-0.496-0.073-0.938-0.199-1.328-0.379
	s-0.704-0.419-0.945-0.719C153.209,78.274,153.089,77.9,153.089,77.453z M154.687,76.953c0,0.354,0.075,0.655,0.224,0.902
	c0.149,0.247,0.35,0.448,0.602,0.602c0.252,0.153,0.544,0.266,0.877,0.336c0.332,0.07,0.685,0.105,1.057,0.105
	c0.464,0,0.881-0.035,1.251-0.105c0.369-0.07,0.683-0.176,0.94-0.316s0.456-0.319,0.593-0.535c0.138-0.216,0.207-0.47,0.207-0.762
	c0-0.25-0.032-0.473-0.095-0.668c-0.063-0.195-0.187-0.361-0.37-0.496c-0.183-0.136-0.439-0.238-0.769-0.309
	c-0.33-0.07-0.761-0.105-1.294-0.105l-1.082-0.016c-0.339,0-0.641-0.009-0.907-0.027c-0.267-0.018-0.506-0.043-0.718-0.074
	c-0.068,0.073-0.133,0.155-0.193,0.246c-0.06,0.091-0.114,0.195-0.163,0.313s-0.087,0.25-0.116,0.398
	C154.701,76.589,154.687,76.76,154.687,76.953z M157.214,71.82c0.354,0,0.655-0.044,0.902-0.133
	c0.246-0.088,0.445-0.223,0.597-0.402c0.152-0.18,0.263-0.403,0.331-0.672c0.068-0.268,0.104-0.582,0.104-0.941
	c0-0.776-0.184-1.352-0.551-1.727c-0.366-0.375-0.916-0.563-1.649-0.563c-0.287,0-0.555,0.034-0.804,0.102
	c-0.249,0.068-0.467,0.181-0.653,0.34c-0.187,0.159-0.332,0.37-0.438,0.633c-0.105,0.263-0.158,0.593-0.158,0.988
	c0,0.323,0.043,0.629,0.129,0.918s0.222,0.542,0.408,0.758c0.186,0.216,0.427,0.387,0.722,0.512S156.801,71.82,157.214,71.82z"/>
<path fill="#FFFFFF" stroke="#000000" stroke-width="0.25" stroke-miterlimit="10" d="M176.503,74.843
	c0-0.161,0.039-0.313,0.116-0.453s0.176-0.262,0.296-0.363c0.121-0.102,0.257-0.181,0.408-0.238c0.152-0.057,0.306-0.086,0.46-0.086
	c0.378,0,0.654,0.095,0.829,0.285c0.175,0.19,0.263,0.418,0.263,0.684c0,0.172-0.037,0.328-0.112,0.469
	c-0.074,0.141-0.172,0.259-0.292,0.355c-0.12,0.097-0.258,0.172-0.412,0.227c-0.155,0.055-0.313,0.082-0.473,0.082
	c-0.138,0-0.272-0.022-0.404-0.066c-0.132-0.044-0.248-0.106-0.348-0.188c-0.101-0.081-0.181-0.181-0.241-0.301
	C176.533,75.13,176.503,74.995,176.503,74.843z"/>
<path fill="#FFFFFF" stroke="#000000" stroke-width="0.25" stroke-miterlimit="10" d="M193.945,71.429
	c-0.006-0.719,0.111-1.367,0.353-1.945c0.24-0.578,0.571-1.073,0.992-1.484c0.421-0.411,0.917-0.731,1.487-0.961
	c0.569-0.229,1.184-0.356,1.843-0.383c0.241-0.005,0.485-0.001,0.735,0.012c0.249,0.013,0.483,0.037,0.704,0.07
	c0.221,0.034,0.423,0.077,0.606,0.129c0.183,0.052,0.332,0.112,0.446,0.18v1.875h-0.816l-0.438-0.984
	c-0.092-0.067-0.197-0.125-0.317-0.172s-0.244-0.086-0.37-0.117s-0.252-0.053-0.378-0.066c-0.126-0.013-0.24-0.02-0.344-0.02
	c-0.384,0-0.75,0.065-1.1,0.195c-0.35,0.13-0.659,0.327-0.929,0.59c-0.269,0.263-0.483,0.594-0.645,0.992
	c-0.16,0.398-0.243,0.866-0.249,1.402c-0.006,0.708,0.086,1.315,0.275,1.82c0.188,0.505,0.436,0.918,0.739,1.238
	c0.303,0.32,0.642,0.555,1.014,0.703s0.739,0.223,1.1,0.223c0.224,0,0.456-0.013,0.696-0.039c0.241-0.026,0.473-0.06,0.696-0.102
	c0.224-0.042,0.43-0.092,0.619-0.152c0.188-0.06,0.344-0.121,0.464-0.184l0.292,0.695c-0.166,0.136-0.372,0.255-0.619,0.359
	c-0.246,0.104-0.517,0.193-0.812,0.266s-0.604,0.129-0.929,0.168c-0.323,0.039-0.648,0.059-0.975,0.059
	c-0.665,0-1.252-0.109-1.762-0.328c-0.511-0.219-0.941-0.523-1.294-0.914s-0.62-0.853-0.804-1.387
	C194.046,72.634,193.951,72.054,193.945,71.429z"/>
<path fill="#FFFFFF" stroke="#000000" stroke-width="0.25" stroke-miterlimit="10" d="M215.229,71.085
	c0.012-0.698,0.145-1.321,0.4-1.871c0.255-0.549,0.591-1.014,1.01-1.395c0.418-0.38,0.9-0.672,1.447-0.875
	c0.548-0.203,1.119-0.307,1.715-0.313c0.728-0.005,1.36,0.109,1.899,0.344c0.538,0.234,0.983,0.556,1.336,0.965
	c0.353,0.409,0.614,0.89,0.786,1.441c0.172,0.552,0.255,1.144,0.25,1.773c-0.006,0.693-0.128,1.326-0.365,1.898
	c-0.238,0.573-0.559,1.064-0.963,1.473c-0.404,0.409-0.877,0.727-1.418,0.953s-1.121,0.34-1.74,0.34c-0.791,0-1.464-0.13-2.02-0.391
	s-1.009-0.609-1.357-1.047c-0.35-0.438-0.604-0.941-0.761-1.512C215.29,72.3,215.218,71.706,215.229,71.085z M219.663,74.945
	c0.487,0.011,0.898-0.065,1.233-0.227c0.335-0.161,0.607-0.399,0.816-0.715c0.209-0.315,0.361-0.706,0.455-1.172
	c0.095-0.466,0.143-1.001,0.143-1.605c0-0.526-0.051-1.017-0.15-1.473c-0.101-0.456-0.258-0.853-0.473-1.191
	c-0.215-0.338-0.487-0.605-0.816-0.801c-0.33-0.195-0.721-0.298-1.174-0.309c-0.486-0.005-0.9,0.072-1.241,0.23
	c-0.341,0.159-0.62,0.392-0.838,0.699c-0.218,0.308-0.377,0.683-0.478,1.125c-0.1,0.443-0.15,0.945-0.15,1.508
	c0,0.505,0.055,0.992,0.164,1.461c0.108,0.469,0.271,0.884,0.489,1.246c0.218,0.362,0.494,0.654,0.829,0.875
	C218.809,74.819,219.205,74.935,219.663,74.945z"/>
<path fill="#FFFFFF" stroke="#000000" stroke-width="0.25" stroke-miterlimit="10" d="M239.09,74.843
	c0-0.161,0.039-0.313,0.116-0.453s0.176-0.262,0.296-0.363c0.121-0.102,0.257-0.181,0.408-0.238c0.152-0.057,0.306-0.086,0.46-0.086
	c0.378,0,0.654,0.095,0.829,0.285c0.175,0.19,0.263,0.418,0.263,0.684c0,0.172-0.037,0.328-0.112,0.469
	c-0.074,0.141-0.172,0.259-0.292,0.355c-0.12,0.097-0.258,0.172-0.412,0.227c-0.155,0.055-0.313,0.082-0.473,0.082
	c-0.138,0-0.272-0.022-0.404-0.066c-0.132-0.044-0.248-0.106-0.348-0.188c-0.101-0.081-0.181-0.181-0.241-0.301
	C239.12,75.13,239.09,74.995,239.09,74.843z"/>
<path fill="#FFFFFF" stroke="#000000" stroke-width="0.25" stroke-miterlimit="10" d="M256.815,74.968l1.169-0.156v-6.367
	l-1.22-0.609v-0.484l2.285-0.617l0.387,0.156v1.117c0.195-0.151,0.43-0.301,0.705-0.449s0.567-0.282,0.877-0.402
	c0.309-0.12,0.627-0.217,0.953-0.293c0.327-0.075,0.637-0.118,0.929-0.129c0.532-0.016,0.979,0.043,1.341,0.176
	c0.36,0.133,0.652,0.349,0.876,0.648c0.224,0.3,0.384,0.684,0.481,1.152s0.146,1.031,0.146,1.688v4.414l1.383,0.156v0.664h-4.331
	v-0.664l1.298-0.164v-4.133c0-0.474-0.025-0.891-0.077-1.25s-0.153-0.656-0.306-0.891c-0.151-0.234-0.362-0.406-0.631-0.516
	c-0.27-0.109-0.622-0.156-1.058-0.141c-0.355,0.016-0.73,0.087-1.126,0.215c-0.395,0.128-0.811,0.327-1.246,0.598v6.117l1.281,0.164
	v0.664h-4.117V74.968z"/>
<path fill="#FFFFFF" stroke="#000000" stroke-width="0.25" stroke-miterlimit="10" d="M280.703,74.992l0.594-0.742l4.632-5.859
	l0.704-0.766l-4.211,0.125l-0.516,1.438h-0.799V66.89h7.296l0.215,0.641l-5.036,6.32l-0.859,1.016l4.555-0.172l0.551-1.32
	c0.148,0,0.296,0.001,0.442,0.004c0.146,0.003,0.293,0.004,0.442,0.004l-0.146,2.25h-7.588L280.703,74.992z"/>
</svg>
